HIERARCHY
ROOT Model
{
	OFFSET 0.000000 0.000000 0.000000 
	CHANNELS 6 Xposition Yposition Zposition Zrotation Xrotation Yrotation
	JOINT Model1
	{
		OFFSET 0.000000 -0.563698 0.748457 
		CHANNELS 3 Zrotation Xrotation Yrotation
		JOINT Model2
		{
			OFFSET 3.027750 0.000000 0.000000 
			CHANNELS 3 Zrotation Xrotation Yrotation
			JOINT Model3
			{
				OFFSET 2.887550 0.000000 0.000000 
				CHANNELS 3 Zrotation Xrotation Yrotation
				JOINT Model4
				{
					OFFSET 2.945250 0.000000 0.000000 
					CHANNELS 3 Zrotation Xrotation Yrotation
					JOINT Model5
					{
						OFFSET 5.015025 0.000000 0.000000 
						CHANNELS 3 Zrotation Xrotation Yrotation
						JOINT Model6
						{
							OFFSET 2.799050 0.000000 0.000000 
							CHANNELS 3 Zrotation Xrotation Yrotation
							End Site
							{
								OFFSET 0.000000 0.000000 0.000000 
							}
						}
					}
					JOINT Model7
					{
						OFFSET 2.705575 0.104384 0.877785 
						CHANNELS 3 Zrotation Xrotation Yrotation
						JOINT Model8
						{
							OFFSET -1.519858 0.000000 0.000000 
							CHANNELS 3 Zrotation Xrotation Yrotation
							JOINT Model9
							{
								OFFSET -0.069353 2.597500 -0.012811 
								CHANNELS 3 Zrotation Xrotation Yrotation
								JOINT Model10
								{
									OFFSET -0.859775 -0.070511 0.466695 
									CHANNELS 3 Zrotation Xrotation Yrotation
									JOINT Model11
									{
										OFFSET 3.256725 0.000000 0.000000 
										CHANNELS 3 Zrotation Xrotation Yrotation
										JOINT Model12
										{
											OFFSET 2.721650 0.000000 0.000000 
											CHANNELS 3 Zrotation Xrotation Yrotation
											JOINT Model13
											{
												OFFSET 4.182925 0.000000 0.000000 
												CHANNELS 3 Zrotation Xrotation Yrotation
												JOINT Model14
												{
													OFFSET 2.957300 0.000000 0.000000 
													CHANNELS 3 Zrotation Xrotation Yrotation
													JOINT Model15
													{
														OFFSET 1.206877 -0.933915 -0.209129 
														CHANNELS 3 Zrotation Xrotation Yrotation
														JOINT Model16
														{
															OFFSET 0.938277 -0.014573 -0.004662 
															CHANNELS 3 Zrotation Xrotation Yrotation
															JOINT Model17
															{
																OFFSET 0.721722 0.004808 0.003700 
																CHANNELS 3 Zrotation Xrotation Yrotation
																End Site
																{
																	OFFSET 0.000000 0.000000 0.000000 
																}
															}
														}
													}
													JOINT Model18
													{
														OFFSET 2.430495 -0.766145 0.059691 
														CHANNELS 3 Zrotation Xrotation Yrotation
														JOINT Model19
														{
															OFFSET 1.152828 0.000000 0.000000 
															CHANNELS 3 Zrotation Xrotation Yrotation
															JOINT Model20
															{
																OFFSET 0.724225 -0.000003 0.000000 
																CHANNELS 3 Zrotation Xrotation Yrotation
																End Site
																{
																	OFFSET 0.000000 0.000000 0.000000 
																}
															}
														}
													}
													JOINT Model21
													{
														OFFSET 2.386075 -0.186266 0.147234 
														CHANNELS 3 Zrotation Xrotation Yrotation
														JOINT Model22
														{
															OFFSET 1.334945 0.000000 0.000000 
															CHANNELS 3 Zrotation Xrotation Yrotation
															JOINT Model23
															{
																OFFSET 0.759048 0.000003 0.000000 
																CHANNELS 3 Zrotation Xrotation Yrotation
																End Site
																{
																	OFFSET 0.000000 0.000000 0.000000 
																}
															}
														}
													}
													JOINT Model24
													{
														OFFSET 2.369397 0.378215 0.121280 
														CHANNELS 3 Zrotation Xrotation Yrotation
														JOINT Model25
														{
															OFFSET 1.240340 0.000003 0.000000 
															CHANNELS 3 Zrotation Xrotation Yrotation
															JOINT Model26
															{
																OFFSET 0.629912 0.000000 0.000000 
																CHANNELS 3 Zrotation Xrotation Yrotation
																End Site
																{
																	OFFSET 0.000000 0.000000 0.000000 
																}
															}
														}
													}
													JOINT Model27
													{
														OFFSET 2.335620 0.835293 -0.059820 
														CHANNELS 3 Zrotation Xrotation Yrotation
														JOINT Model28
														{
															OFFSET 0.820647 0.000007 0.000000 
															CHANNELS 3 Zrotation Xrotation Yrotation
															JOINT Model29
															{
																OFFSET 0.532300 0.000000 0.000000 
																CHANNELS 3 Zrotation Xrotation Yrotation
																End Site
																{
																	OFFSET 0.000000 0.000000 0.000000 
																}
															}
														}
													}
												}
											}
										}
									}
								}
							}
						}
					}
					JOINT Model30
					{
						OFFSET 2.705575 0.104476 -0.877768 
						CHANNELS 3 Zrotation Xrotation Yrotation
						JOINT Model31
						{
							OFFSET 1.519858 0.000000 0.000000 
							CHANNELS 3 Zrotation Xrotation Yrotation
							JOINT Model32
							{
								OFFSET 0.069353 -2.597500 0.012811 
								CHANNELS 3 Zrotation Xrotation Yrotation
								JOINT Model33
								{
									OFFSET 0.859775 0.070511 -0.466695 
									CHANNELS 3 Zrotation Xrotation Yrotation
									JOINT Model34
									{
										OFFSET -3.256725 0.000000 0.000000 
										CHANNELS 3 Zrotation Xrotation Yrotation
										JOINT Model35
										{
											OFFSET -2.721650 0.000000 0.000000 
											CHANNELS 3 Zrotation Xrotation Yrotation
											JOINT Model36
											{
												OFFSET -4.182925 0.000000 0.000000 
												CHANNELS 3 Zrotation Xrotation Yrotation
												JOINT Model37
												{
													OFFSET -2.957300 0.000000 0.000000 
													CHANNELS 3 Zrotation Xrotation Yrotation
													JOINT Model38
													{
														OFFSET -1.206877 0.933915 0.209129 
														CHANNELS 3 Zrotation Xrotation Yrotation
														JOINT Model39
														{
															OFFSET -0.938277 0.014571 0.004661 
															CHANNELS 3 Zrotation Xrotation Yrotation
															JOINT Model40
															{
																OFFSET -0.721720 -0.004809 -0.003700 
																CHANNELS 3 Zrotation Xrotation Yrotation
																End Site
																{
																	OFFSET 0.000000 0.000000 0.000000 
																}
															}
														}
													}
													JOINT Model41
													{
														OFFSET -2.430492 0.766147 -0.059692 
														CHANNELS 3 Zrotation Xrotation Yrotation
														JOINT Model42
														{
															OFFSET -1.152825 0.000000 0.000000 
															CHANNELS 3 Zrotation Xrotation Yrotation
															JOINT Model43
															{
																OFFSET -0.724225 0.000000 0.000000 
																CHANNELS 3 Zrotation Xrotation Yrotation
																End Site
																{
																	OFFSET 0.000000 0.000000 0.000000 
																}
															}
														}
													}
													JOINT Model44
													{
														OFFSET -2.386075 0.186266 -0.147235 
														CHANNELS 3 Zrotation Xrotation Yrotation
														JOINT Model45
														{
															OFFSET -1.334945 0.000000 0.000000 
															CHANNELS 3 Zrotation Xrotation Yrotation
															JOINT Model46
															{
																OFFSET -0.759048 -0.000004 0.000000 
																CHANNELS 3 Zrotation Xrotation Yrotation
																End Site
																{
																	OFFSET 0.000000 0.000000 0.000000 
																}
															}
														}
													}
													JOINT Model47
													{
														OFFSET -2.369397 -0.378215 -0.121281 
														CHANNELS 3 Zrotation Xrotation Yrotation
														JOINT Model48
														{
															OFFSET -1.240340 -0.000004 0.000000 
															CHANNELS 3 Zrotation Xrotation Yrotation
															JOINT Model49
															{
																OFFSET -0.629915 0.000000 0.000000 
																CHANNELS 3 Zrotation Xrotation Yrotation
																End Site
																{
																	OFFSET 0.000000 0.000000 0.000000 
																}
															}
														}
													}
													JOINT Model50
													{
														OFFSET -2.335615 -0.835295 0.059819 
														CHANNELS 3 Zrotation Xrotation Yrotation
														JOINT Model51
														{
															OFFSET -0.820650 -0.000005 0.000000 
															CHANNELS 3 Zrotation Xrotation Yrotation
															JOINT Model52
															{
																OFFSET -0.532300 0.000000 0.000000 
																CHANNELS 3 Zrotation Xrotation Yrotation
																End Site
																{
																	OFFSET 0.000000 0.000000 0.000000 
																}
															}
														}
													}
												}
											}
										}
									}
								}
							}
						}
					}
				}
			}
		}
	}
	JOINT Model53
	{
		OFFSET 1.095065 -0.536580 -0.278790 
		CHANNELS 3 Zrotation Xrotation Yrotation
		JOINT Model54
		{
			OFFSET 0.000000 0.000000 1.237497 
			CHANNELS 3 Zrotation Xrotation Yrotation
			JOINT Model55
			{
				OFFSET 4.641050 0.000000 0.000000 
				CHANNELS 3 Zrotation Xrotation Yrotation
				JOINT Model56
				{
					OFFSET 5.322100 0.000000 0.000003 
					CHANNELS 3 Zrotation Xrotation Yrotation
					JOINT Model57
					{
						OFFSET 7.565250 0.000000 0.000000 
						CHANNELS 3 Zrotation Xrotation Yrotation
						JOINT Model58
						{
							OFFSET 2.931475 0.000000 0.000000 
							CHANNELS 3 Zrotation Xrotation Yrotation
							JOINT Model59
							{
								OFFSET 2.670500 0.000000 0.000000 
								CHANNELS 3 Zrotation Xrotation Yrotation
								End Site
								{
									OFFSET 0.000000 0.000000 0.000000 
								}
							}
						}
					}
				}
			}
		}
	}
	JOINT Model60
	{
		OFFSET -1.095065 -0.536580 -0.278790 
		CHANNELS 3 Zrotation Xrotation Yrotation
		JOINT Model61
		{
			OFFSET 0.000000 0.000000 -1.237497 
			CHANNELS 3 Zrotation Xrotation Yrotation
			JOINT Model62
			{
				OFFSET -4.641050 0.000000 0.000000 
				CHANNELS 3 Zrotation Xrotation Yrotation
				JOINT Model63
				{
					OFFSET -5.322100 0.000000 -0.000003 
					CHANNELS 3 Zrotation Xrotation Yrotation
					JOINT Model64
					{
						OFFSET -7.565250 0.000000 0.000000 
						CHANNELS 3 Zrotation Xrotation Yrotation
						JOINT Model65
						{
							OFFSET -2.931475 0.000000 0.000000 
							CHANNELS 3 Zrotation Xrotation Yrotation
							JOINT Model66
							{
								OFFSET -2.670500 0.000000 0.000000 
								CHANNELS 3 Zrotation Xrotation Yrotation
								End Site
								{
									OFFSET 0.000000 0.000000 0.000000 
								}
							}
						}
					}
				}
			}
		}
	}
}
MOTION
Frames: 4
Frame Time: 0.033333
-8.221627 21.904001 9.146525 -121.108002 -51.473400 -94.936600 -180.000000 -0.000000 -90.000000 10.341700 -1.232140 -10.207200 20.321400 -4.250160 -20.047199 20.321400 -4.249750 -20.047400 -32.077301 15.190900 4.658850 -9.352610 11.380800 34.299500 120.092003 75.534302 58.493900 28.903000 -35.148499 -6.494740 -167.276993 84.499901 48.810902 147.917999 -34.341702 42.421200 0.000016 -33.884800 0.000024 -134.884995 -7.485520 0.434832 -0.000001 -10.661300 -0.000001 -1.563610 -0.445600 31.811199 -72.064796 39.038502 39.339699 33.363800 2.103620 14.835000 0.588947 0.308273 6.352870 -99.640900 81.413002 100.349998 -0.018141 0.000028 -0.117315 -0.124139 0.002411 -0.799296 -79.838203 79.577301 80.537399 -0.000226 -0.000221 0.000022 -0.000956 0.000123 -0.000027 -66.741600 80.405800 67.217102 -0.000437 0.000016 -0.000027 -0.000137 -0.000109 -0.000055 -6.421590 81.215797 8.017790 -0.000219 0.000017 0.000212 0.000902 -0.000185 -0.000219 -59.928200 75.537300 58.514702 50.326401 -27.509800 -4.010990 -167.276993 84.499901 48.810902 120.494003 -28.999800 39.748299 0.000015 -14.621300 0.000029 -143.889008 -4.907670 0.359991 0.000000 -6.548460 -0.000000 -0.052589 0.002475 -5.388530 -72.064796 39.038502 39.339699 33.363800 2.103610 14.835000 0.588946 0.308273 6.352870 -99.640900 81.413002 100.349998 -0.018141 0.000030 -0.117315 -0.124139 0.002411 -0.799296 -79.838203 79.577301 80.537399 -0.000261 -0.000219 0.000024 -0.000956 0.000123 -0.000027 -66.741600 80.405800 67.217102 -0.000437 0.000015 -0.000027 -0.000137 -0.000109 -0.000055 -6.421590 81.215797 8.017790 -0.000219 0.000020 0.000212 0.000902 -0.000191 -0.000219 0.000815 0.566610 89.910004 -24.276600 -14.435400 -50.017502 -0.000002 4.688710 -0.000000 50.561001 0.896635 -0.006412 0.000000 1.252380 0.000001 -59.474201 0.864615 -1.167360 -39.212898 -10.654900 -0.117778 -180.000000 -0.566576 -90.089996 -6.395170 3.897900 14.047800 0.000002 -4.907410 -0.000000 40.101601 -0.671754 0.052264 0.000000 -1.083170 0.000000 -45.915901 -1.375100 1.069620 -54.966599 -1.046290 -1.692450 
-8.250226 21.242998 9.100400 -121.778999 -51.561298 -98.440697 -180.000000 -0.000000 -90.000000 10.485800 -1.213760 -10.239700 20.609100 -4.244290 -20.107300 20.609100 -4.243880 -20.107500 -32.191200 13.829900 5.604840 -7.900980 11.328100 32.336300 120.092003 75.534302 58.493900 27.558701 -34.747002 -6.689900 -167.276993 84.499901 48.810902 147.078995 -34.861500 39.153301 0.000016 -34.188702 0.000024 -134.751007 -7.644920 0.435992 -0.000001 -10.904000 -0.000001 -2.284480 -0.589282 28.924700 -72.064796 39.038502 39.339699 33.363800 2.103620 14.835000 0.588947 0.308273 6.352870 -99.640900 81.413002 100.349998 -0.018141 0.000028 -0.117315 -0.124139 0.002411 -0.799296 -79.838203 79.577301 80.537399 -0.000226 -0.000221 0.000022 -0.000956 0.000123 -0.000027 -66.741600 80.405800 67.217102 -0.000437 0.000016 -0.000027 -0.000137 -0.000109 -0.000055 -6.421590 81.215797 8.017790 -0.000219 0.000017 0.000212 0.000902 -0.000185 -0.000219 -59.928200 75.537300 58.514702 49.535999 -26.269699 -4.256120 -167.276993 84.499901 48.810902 119.384003 -28.817101 37.905399 0.000015 -14.494000 0.000029 -143.348999 -4.712070 0.364532 0.000000 -6.269980 -0.000000 -0.052589 0.002475 -5.388530 -72.064796 39.038502 39.339699 33.363800 2.103610 14.835000 0.588946 0.308273 6.352870 -99.640900 81.413002 100.349998 -0.018141 0.000030 -0.117315 -0.124139 0.002411 -0.799296 -79.838203 79.577301 80.537399 -0.000261 -0.000219 0.000024 -0.000956 0.000123 -0.000027 -66.741600 80.405800 67.217102 -0.000437 0.000015 -0.000027 -0.000137 -0.000109 -0.000055 -6.421590 81.215797 8.017790 -0.000219 0.000020 0.000212 0.000902 -0.000191 -0.000219 0.000815 0.566610 89.910004 -25.188400 -15.500000 -50.685699 -0.000002 2.715390 -0.000000 53.218800 3.679250 -0.006729 0.000000 5.422490 0.000001 -69.358299 1.409770 -1.707410 -35.603199 -0.308267 0.016073 -180.000000 -0.566576 -90.089996 -5.626970 3.845310 10.651300 0.000002 -2.481480 -0.000000 44.779400 2.075560 -0.005714 0.000000 3.029700 0.000000 -66.368698 -1.562990 0.007473 -40.924301 -0.336701 -0.392973 
-8.213002 20.593000 8.942325 -119.176003 -50.970200 -97.772697 -180.000000 -0.000000 -90.000000 10.103700 -1.097150 -9.652500 19.896400 -3.849260 -18.978300 19.896400 -3.848850 -18.978500 -31.754299 13.710700 5.140250 -7.156840 11.568900 29.674299 120.092003 75.534302 58.493900 27.120701 -35.605202 -6.836140 -167.276993 84.499901 48.810902 150.391998 -34.200802 39.528400 0.000016 -34.286400 0.000024 -134.218994 -8.475760 0.440844 -0.000001 -12.164400 -0.000001 -0.438577 -0.109868 28.126600 -72.064796 39.038502 39.339699 33.363800 2.103620 14.835000 0.588947 0.308273 6.352870 -99.640900 81.413002 100.349998 -0.018141 0.000028 -0.117315 -0.124139 0.002411 -0.799296 -79.838203 79.577301 80.537399 -0.000226 -0.000221 0.000022 -0.000956 0.000123 -0.000027 -66.741600 80.405800 67.217102 -0.000437 0.000016 -0.000027 -0.000137 -0.000109 -0.000055 -6.421590 81.215797 8.017790 -0.000219 0.000017 0.000212 0.000902 -0.000185 -0.000219 -59.928200 75.537300 58.514702 50.263599 -24.110600 -4.506710 -167.276993 84.499901 48.810902 117.875000 -28.582800 35.619801 0.000015 -14.348300 0.000029 -143.272003 -4.593710 0.365135 0.000000 -6.094600 -0.000000 -0.052589 0.002475 -5.388530 -72.064796 39.038502 39.339699 33.363800 2.103610 14.835000 0.588946 0.308273 6.352870 -99.640900 81.413002 100.349998 -0.018141 0.000030 -0.117315 -0.124139 0.002411 -0.799296 -79.838203 79.577301 80.537399 -0.000261 -0.000219 0.000024 -0.000956 0.000123 -0.000027 -66.741600 80.405800 67.217102 -0.000437 0.000015 -0.000027 -0.000137 -0.000109 -0.000055 -6.421590 81.215797 8.017790 -0.000219 0.000020 0.000212 0.000902 -0.000191 -0.000219 0.000815 0.566610 89.910004 -29.427900 -14.985000 -53.592400 -0.000002 1.705050 -0.000000 56.480400 6.499180 -0.007047 0.000000 9.648010 0.000001 -70.047897 -4.177900 1.165790 -35.569000 -0.211152 0.011140 -180.000000 -0.566576 -90.089996 -11.448600 3.621660 9.314880 0.000002 -0.878901 -0.000000 51.651600 4.527510 -0.006400 0.000000 6.696910 0.000000 -74.957603 -0.085892 -1.114180 -35.494701 -0.000001 0.000000 
-8.032977 20.204750 8.872525 -117.586998 -50.180199 -99.121399 -180.000000 -0.000000 -90.000000 10.205500 -0.988991 -9.390540 20.127199 -3.607370 -18.470501 20.127199 -3.606960 -18.470600 -32.597500 13.536600 4.956350 -6.607060 11.897900 26.737600 120.092003 75.534302 58.493900 26.405100 -36.129200 -7.010270 -167.276993 84.499901 48.810902 154.522003 -33.124599 39.965401 0.000016 -34.075699 0.000024 -134.843002 -8.715890 0.436408 -0.000001 -12.507800 -0.000001 1.362660 0.355340 29.230101 -72.064796 39.038502 39.339699 33.363800 2.103620 14.835000 0.588947 0.308273 6.352870 -99.640900 81.413002 100.349998 -0.018141 0.000028 -0.117315 -0.124139 0.002411 -0.799296 -79.838203 79.577301 80.537399 -0.000226 -0.000221 0.000022 -0.000956 0.000123 -0.000027 -66.741600 80.405800 67.217102 -0.000437 0.000016 -0.000027 -0.000137 -0.000109 -0.000055 -6.421590 81.215797 8.017790 -0.000219 0.000017 0.000212 0.000902 -0.000185 -0.000219 -59.928200 75.537300 58.514702 49.921299 -21.415400 -4.899050 -167.276993 84.499901 48.810902 117.119003 -27.583200 33.436199 0.000014 -13.222500 0.000029 -143.639008 -4.359650 0.361894 0.000000 -5.733420 -0.000000 -0.052589 0.002475 -5.388530 -72.064796 39.038502 39.339699 33.363800 2.103610 14.835000 0.588946 0.308273 6.352870 -99.640900 81.413002 100.349998 -0.018141 0.000030 -0.117315 -0.124139 0.002411 -0.799296 -79.838203 79.577301 80.537399 -0.000261 -0.000219 0.000024 -0.000956 0.000123 -0.000027 -66.741600 80.405800 67.217102 -0.000437 0.000015 -0.000027 -0.000137 -0.000109 -0.000055 -6.421590 81.215797 8.017790 -0.000219 0.000020 0.000212 0.000902 -0.000191 -0.000219 0.000815 0.566610 89.910004 -30.735901 -14.904800 -52.413502 -0.000002 0.146626 -0.000000 59.230999 7.276540 -0.007267 0.000000 10.810700 0.000001 -70.571503 -4.351630 1.212670 -35.551102 -0.160078 0.008496 -180.000000 -0.566576 -90.089996 -16.523800 3.361420 6.836750 0.000002 0.981956 -0.000000 57.295300 5.785970 -0.006909 0.000000 8.576940 0.000000 -76.408600 0.705078 -1.517060 -35.494701 -0.000000 -0.000001 
